<?xml version="1.0" encoding="UTF-8" standalone="no"?>
<svg
   xmlns:dc="http://purl.org/dc/elements/1.1/"
   xmlns:cc="http://creativecommons.org/ns#"
   xmlns:rdf="http://www.w3.org/1999/02/22-rdf-syntax-ns#"
   xmlns:svg="http://www.w3.org/2000/svg"
   xmlns="http://www.w3.org/2000/svg"
   width="24mm"
   height="12mm"
   viewBox="0 0 24 12"
   version="1.1"
   id="svg8">
  <defs
     id="defs2">
    <rect
       x="23.540173"
       y="170.27391"
       width="57.281086"
       height="20.401482"
       id="rect835" />
  </defs>
  <metadata
     id="metadata5">
    <rdf:RDF>
      <cc:Work
         rdf:about="">
        <dc:format>image/svg+xml</dc:format>
        <dc:type
           rdf:resource="http://purl.org/dc/dcmitype/StillImage" />
        <dc:title></dc:title>
      </cc:Work>
    </rdf:RDF>
  </metadata>
  <g
     id="layer1">
    <g
       aria-label="45"
       transform="translate(-40.046306,-170.22233)"
       id="text833"
       style="font-weight:bold;font-size:10.5833px;line-height:1.25;font-family:sans-serif;-inkscape-font-specification:'sans-serif Bold';text-align:center;text-anchor:middle;white-space:pre;shape-inside:url(#rect835)">
      <path
         d="m 47.22491,178.83715 h 3.141917 v 1.12138 h 1.080034 v -1.12138 h 0.599445 v -1.01802 h -0.599445 v -2.16523 h -1.080034 v 2.16523 h -1.968866 l 2.54764,-5.395 h -1.204057 l -2.516634,5.395 z"
         style="font-style:normal;font-variant:normal;font-weight:bold;font-stretch:normal;font-family:'DIN Alternate';-inkscape-font-specification:'DIN Alternate Bold'"
         id="path857" />
      <path
         d="m 52.707762,176.49622 h 1.018022 q 0.191203,-0.34623 0.434081,-0.48576 0.242879,-0.13436 0.537433,-0.13436 0.330728,0 0.552936,0.093 0.222208,0.11369 0.335896,0.30489 0.211873,0.40308 0.201538,1.04903 0,0.26355 -0.01034,0.5426 -0.02067,0.28422 -0.113688,0.5271 -0.08785,0.24288 -0.310057,0.39274 -0.232543,0.15503 -0.620115,0.15503 -0.904335,-0.0103 -1.080034,-0.8785 h -1.080034 q 0.155028,1.03869 0.800982,1.50378 0.635618,0.45475 1.400427,0.45475 0.568439,-0.0103 0.981849,-0.26355 0.423745,-0.24288 0.645953,-0.53743 0.253214,-0.29972 0.361734,-0.6873 0.103353,-0.39274 0.103353,-1.12654 0,-0.47542 -0.03101,-0.80098 -0.03101,-0.32039 -0.103353,-0.5426 -0.139526,-0.40824 -0.454751,-0.7183 -0.211873,-0.23255 -0.552936,-0.39274 -0.361734,-0.1447 -0.795815,-0.15503 -0.676959,0 -1.204057,0.41341 v 0 -1.70532 h 2.997224 v -1.08003 h -4.015246 z"
         style="font-style:normal;font-variant:normal;font-weight:bold;font-stretch:normal;font-family:'DIN Alternate';-inkscape-font-specification:'DIN Alternate Bold'"
         id="path859" />
    </g>
  </g>
</svg>
