<?xml version="1.0" encoding="UTF-8" standalone="no"?>
<svg
   xmlns:dc="http://purl.org/dc/elements/1.1/"
   xmlns:cc="http://creativecommons.org/ns#"
   xmlns:rdf="http://www.w3.org/1999/02/22-rdf-syntax-ns#"
   xmlns:svg="http://www.w3.org/2000/svg"
   xmlns="http://www.w3.org/2000/svg"
   width="16mm"
   height="12mm"
   viewBox="0 0 16 12"
   version="1.1"
   id="svg8">
  <defs
     id="defs2">
    <rect
       x="23.540173"
       y="170.27391"
       width="57.281086"
       height="20.401482"
       id="rect835" />
  </defs>
  <metadata
     id="metadata5">
    <rdf:RDF>
      <cc:Work
         rdf:about="">
        <dc:format>image/svg+xml</dc:format>
        <dc:type
           rdf:resource="http://purl.org/dc/dcmitype/StillImage" />
        <dc:title></dc:title>
      </cc:Work>
    </rdf:RDF>
  </metadata>
  <g
     id="layer1">
    <g
       aria-label="30"
       transform="translate(-44.051473,-170.19133)"
       id="text833"
       style="font-weight:bold;font-size:10.5833px;line-height:1.25;font-family:sans-serif;-inkscape-font-specification:'sans-serif Bold';text-align:center;white-space:pre;shape-inside:url(#rect835)">
      <path
         d="m 48.956065,176.55306 h 0.454751 q 0.50126,0 0.82682,0.30489 0.330729,0.31523 0.341064,0.88883 -0.01033,0.56328 -0.341064,0.86817 -0.32556,0.32556 -0.800982,0.32556 -0.444416,0 -0.713132,-0.24288 -0.263549,-0.23255 -0.408243,-0.60978 h -1.080034 q 0.1757,0.94051 0.769977,1.4366 0.594277,0.49609 1.364253,0.49609 0.997352,-0.0103 1.63297,-0.63562 0.645954,-0.60978 0.656289,-1.66914 0,-0.47542 -0.201538,-0.9095 -0.211872,-0.43408 -0.687294,-0.74414 0.465086,-0.31523 0.645953,-0.7183 0.155029,-0.40308 0.155029,-0.83716 -0.01033,-0.85782 -0.589109,-1.48827 -0.604613,-0.64596 -1.63297,-0.65629 -0.811318,0.0103 -1.39526,0.57877 -0.594277,0.57361 -0.676959,1.41076 h 1.080034 q 0.103353,-0.46508 0.403075,-0.68729 0.28422,-0.22221 0.630451,-0.22221 0.480589,0.0103 0.785479,0.30489 0.30489,0.30489 0.315225,0.78031 0,0.47026 -0.30489,0.76481 -0.30489,0.30489 -0.857826,0.30489 h -0.372069 z"
         style="font-style:normal;font-variant:normal;font-weight:bold;font-stretch:normal;font-family:'DIN Alternate';-inkscape-font-specification:'DIN Alternate Bold'"
         id="path1137" />
      <path
         d="m 55.777332,177.78813 q -0.03101,1.14204 -1.059363,1.15238 -1.033526,-0.0103 -1.054196,-1.15238 v -3.1936 q 0.02067,-1.13171 1.054196,-1.15238 1.028358,0.0207 1.059363,1.15238 z m -3.193593,0.062 q 0.01033,1.03869 0.666624,1.60196 0.614947,0.5581 1.467606,0.56844 0.878496,-0.0103 1.493444,-0.56844 0.625283,-0.56327 0.645953,-1.60196 v -3.32279 q -0.02067,-1.04386 -0.645953,-1.60713 -0.614948,-0.5581 -1.493444,-0.5581 -0.852659,0 -1.467606,0.5581 -0.656289,0.56327 -0.666624,1.60713 z"
         style="font-style:normal;font-variant:normal;font-weight:bold;font-stretch:normal;font-family:'DIN Alternate';-inkscape-font-specification:'DIN Alternate Bold'"
         id="path1139" />
    </g>
  </g>
</svg>
