<?xml version="1.0" encoding="UTF-8" standalone="no"?>
<svg
   xmlns:dc="http://purl.org/dc/elements/1.1/"
   xmlns:cc="http://creativecommons.org/ns#"
   xmlns:rdf="http://www.w3.org/1999/02/22-rdf-syntax-ns#"
   xmlns:svg="http://www.w3.org/2000/svg"
   xmlns="http://www.w3.org/2000/svg"
   width="24mm"
   height="12mm"
   viewBox="0 0 24 12"
   version="1.1"
   id="svg8">
  <defs
     id="defs2">
    <rect
       x="23.540173"
       y="170.27391"
       width="57.281086"
       height="20.401482"
       id="rect835" />
  </defs>
  <metadata
     id="metadata5">
    <rdf:RDF>
      <cc:Work
         rdf:about="">
        <dc:format>image/svg+xml</dc:format>
        <dc:type
           rdf:resource="http://purl.org/dc/dcmitype/StillImage" />
        <dc:title></dc:title>
      </cc:Work>
    </rdf:RDF>
  </metadata>
  <g
     id="layer1">
    <g
       aria-label="270"
       transform="translate(-40.046306,-170.22233)"
       id="text833"
       style="font-weight:bold;font-size:10.5833px;line-height:1.25;font-family:sans-serif;-inkscape-font-specification:'sans-serif Bold';text-align:center;white-space:pre;shape-inside:url(#rect835)">
      <path
         d="m 44.89431,179.95853 h 4.294298 v -1.08004 H 46.31024 l 2.423617,-3.03856 q 0.454751,-0.57877 0.454751,-1.32291 -0.01034,-0.93018 -0.625283,-1.53479 -0.604612,-0.60978 -1.576126,-0.62011 -0.868161,0.0103 -1.462438,0.60978 -0.58911,0.61494 -0.630451,1.55545 h 1.074867 q 0.05684,-0.51676 0.361734,-0.80098 0.294554,-0.28422 0.73897,-0.28422 0.50126,0.0103 0.775144,0.32556 0.263549,0.31523 0.263549,0.73897 0,0.1602 -0.04134,0.34107 -0.06201,0.1912 -0.232543,0.41341 l -2.94038,3.67935 z"
         style="font-style:normal;font-variant:normal;font-weight:bold;font-stretch:normal;font-family:'DIN Alternate';-inkscape-font-specification:'DIN Alternate Bold'"
         id="path946" />
      <path
         d="m 50.175625,174.59453 h 1.080034 v -1.09037 h 1.999871 l -2.54764,6.45437 h 1.204057 l 2.552808,-6.45437 v -1.08003 h -4.28913 z"
         style="font-style:normal;font-variant:normal;font-weight:bold;font-stretch:normal;font-family:'DIN Alternate';-inkscape-font-specification:'DIN Alternate Bold'"
         id="path948" />
      <path
         d="m 58.319805,177.78813 q -0.03101,1.14204 -1.059364,1.15238 -1.033525,-0.0103 -1.054196,-1.15238 v -3.1936 q 0.02067,-1.13171 1.054196,-1.15238 1.028358,0.0207 1.059364,1.15238 z m -3.193594,0.062 q 0.01034,1.03869 0.666624,1.60196 0.614948,0.5581 1.467606,0.56844 0.878497,-0.0103 1.493444,-0.56844 0.625283,-0.56327 0.645954,-1.60196 v -3.32279 q -0.02067,-1.04386 -0.645954,-1.60713 -0.614947,-0.5581 -1.493444,-0.5581 -0.852658,0 -1.467606,0.5581 -0.656288,0.56327 -0.666624,1.60713 z"
         style="font-style:normal;font-variant:normal;font-weight:bold;font-stretch:normal;font-family:'DIN Alternate';-inkscape-font-specification:'DIN Alternate Bold'"
         id="path950" />
    </g>
  </g>
</svg>
