<?xml version="1.0" encoding="UTF-8" standalone="no"?>
<svg
   xmlns:dc="http://purl.org/dc/elements/1.1/"
   xmlns:cc="http://creativecommons.org/ns#"
   xmlns:rdf="http://www.w3.org/1999/02/22-rdf-syntax-ns#"
   xmlns:svg="http://www.w3.org/2000/svg"
   xmlns="http://www.w3.org/2000/svg"
   width="16mm"
   height="12mm"
   viewBox="0 0 16 12"
   version="1.1"
   id="svg8">
  <defs
     id="defs2">
    <rect
       x="23.540173"
       y="170.27391"
       width="57.281086"
       height="20.401482"
       id="rect835" />
  </defs>
  <metadata
     id="metadata5">
    <rdf:RDF>
      <cc:Work
         rdf:about="">
        <dc:format>image/svg+xml</dc:format>
        <dc:type
           rdf:resource="http://purl.org/dc/dcmitype/StillImage" />
        <dc:title></dc:title>
      </cc:Work>
    </rdf:RDF>
  </metadata>
  <g
     id="layer1">
    <g
       aria-label="60"
       transform="translate(-44.051473,-170.19133)"
       id="text833"
       style="font-weight:bold;font-size:10.5833px;line-height:1.25;font-family:sans-serif;-inkscape-font-specification:'sans-serif Bold';text-align:center;white-space:pre;shape-inside:url(#rect835)">
      <path
         d="m 51.023116,172.34661 q 0.0052,0 -0.05168,0.11369 -0.05168,0.10852 -0.144693,0.29972 -0.09302,0.19121 -0.21704,0.43925 -0.124024,0.24805 -0.263549,0.52193 -0.134359,0.27389 -0.279052,0.55294 -0.139526,0.27905 -0.273885,0.53226 -0.12919,0.25322 -0.23771,0.45992 -0.108521,0.20671 -0.180867,0.33073 0.149861,-0.0879 0.335895,-0.10335 0.191203,-0.0207 0.439249,-0.0103 0.356566,0.0103 0.620115,0.12403 0.268717,0.11368 0.459919,0.28422 0.191202,0.17053 0.315225,0.3824 0.129191,0.20671 0.201537,0.40824 0.07235,0.19637 0.09819,0.37207 0.03101,0.17053 0.03101,0.26872 0,0.031 0,0.11369 0,0.0827 0,0.18603 0,0.0982 -0.0052,0.20154 0,0.10335 -0.0052,0.1757 -0.0052,0.0362 -0.03617,0.1912 -0.02584,0.14986 -0.103352,0.36173 -0.07235,0.20671 -0.211873,0.44959 -0.139526,0.23771 -0.366901,0.45475 -0.227376,0.21187 -0.552936,0.3669 -0.325561,0.15503 -0.775144,0.1912 -0.470254,0.0413 -0.831988,-0.062 -0.361734,-0.10335 -0.625283,-0.29455 -0.263549,-0.19121 -0.439248,-0.43925 -0.1757,-0.25322 -0.279052,-0.51676 -0.09819,-0.26355 -0.134359,-0.50643 -0.03101,-0.24288 -0.01034,-0.41341 0.03101,-0.25322 0.06718,-0.44959 0.03617,-0.20153 0.08268,-0.3824 0.05168,-0.18087 0.113688,-0.35657 0.06201,-0.1757 0.144694,-0.3824 0.02067,-0.0517 0.113688,-0.24288 0.09302,-0.19637 0.227375,-0.48059 0.139526,-0.28422 0.310058,-0.62528 0.170531,-0.34106 0.341063,-0.69246 0.403075,-0.81649 0.904335,-1.82418 z m -0.217041,5.51386 q 0,-0.19637 -0.0155,-0.43408 -0.0155,-0.23771 -0.118855,-0.44958 -0.09819,-0.21704 -0.32556,-0.37207 -0.227376,-0.15503 -0.645954,-0.18604 -0.19637,-0.0155 -0.356566,0.0413 -0.160196,0.0568 -0.28422,0.15502 -0.124023,0.0982 -0.21704,0.22738 -0.08785,0.12402 -0.149861,0.24805 -0.05684,0.12402 -0.08268,0.23254 -0.02584,0.10335 -0.02584,0.1602 0,0.12919 0.0052,0.28938 0.0052,0.15503 0.03101,0.31523 0.03101,0.15503 0.09819,0.30489 0.06718,0.14469 0.191202,0.25838 0.124023,0.11369 0.315226,0.18603 0.196369,0.0724 0.485756,0.0724 0.232544,0.005 0.403075,-0.0568 0.1757,-0.0672 0.294555,-0.16537 0.124023,-0.10335 0.201538,-0.22737 0.07751,-0.12403 0.118855,-0.24288 0.04651,-0.11886 0.06201,-0.21187 0.0155,-0.0982 0.0155,-0.1447 z"
         style="font-style:normal;font-variant:normal;font-weight:bold;font-stretch:normal;font-family:'DIN Alternate';-inkscape-font-specification:'DIN Alternate Bold'"
         id="path1160" />
      <path
         d="m 55.777332,177.78813 q -0.03101,1.14204 -1.059363,1.15238 -1.033526,-0.0103 -1.054196,-1.15238 v -3.1936 q 0.02067,-1.13171 1.054196,-1.15238 1.028358,0.0207 1.059363,1.15238 z m -3.193593,0.062 q 0.01033,1.03869 0.666624,1.60196 0.614947,0.5581 1.467606,0.56844 0.878496,-0.0103 1.493444,-0.56844 0.625283,-0.56327 0.645953,-1.60196 v -3.32279 q -0.02067,-1.04386 -0.645953,-1.60713 -0.614948,-0.5581 -1.493444,-0.5581 -0.852659,0 -1.467606,0.5581 -0.656289,0.56327 -0.666624,1.60713 z"
         style="font-style:normal;font-variant:normal;font-weight:bold;font-stretch:normal;font-family:'DIN Alternate';-inkscape-font-specification:'DIN Alternate Bold'"
         id="path1162" />
    </g>
  </g>
</svg>
