<?xml version="1.0" encoding="UTF-8" standalone="no"?>
<svg
   xmlns:dc="http://purl.org/dc/elements/1.1/"
   xmlns:cc="http://creativecommons.org/ns#"
   xmlns:rdf="http://www.w3.org/1999/02/22-rdf-syntax-ns#"
   xmlns:svg="http://www.w3.org/2000/svg"
   xmlns="http://www.w3.org/2000/svg"
   width="24mm"
   height="12mm"
   viewBox="0 0 24 12"
   version="1.1"
   id="svg8">
  <defs
     id="defs2">
    <rect
       x="23.540173"
       y="170.27391"
       width="57.281086"
       height="20.401482"
       id="rect835" />
  </defs>
  <metadata
     id="metadata5">
    <rdf:RDF>
      <cc:Work
         rdf:about="">
        <dc:format>image/svg+xml</dc:format>
        <dc:type
           rdf:resource="http://purl.org/dc/dcmitype/StillImage" />
        <dc:title></dc:title>
      </cc:Work>
    </rdf:RDF>
  </metadata>
  <g
     id="layer1">
    <g
       aria-label="315"
       transform="translate(-40.046306,-170.22233)"
       id="text833"
       style="font-weight:bold;font-size:10.5833px;line-height:1.25;font-family:sans-serif;-inkscape-font-specification:'sans-serif Bold';text-align:center;white-space:pre;shape-inside:url(#rect835)">
      <path
         d="m 46.413593,176.55306 h 0.454751 q 0.50126,0 0.82682,0.30489 0.330728,0.31523 0.341063,0.88883 -0.01033,0.56328 -0.341063,0.86817 -0.32556,0.32556 -0.800982,0.32556 -0.444416,0 -0.713133,-0.24288 -0.263549,-0.23255 -0.408242,-0.60978 h -1.080034 q 0.175699,0.94051 0.769976,1.4366 0.594277,0.49609 1.364254,0.49609 0.997352,-0.0103 1.63297,-0.63562 0.645953,-0.60978 0.656288,-1.66914 0,-0.47542 -0.201537,-0.9095 -0.211873,-0.43408 -0.687294,-0.74414 0.465086,-0.31523 0.645953,-0.7183 0.155029,-0.40308 0.155029,-0.83716 -0.01034,-0.85782 -0.58911,-1.48827 -0.604612,-0.64596 -1.63297,-0.65629 -0.811317,0.0103 -1.395259,0.57877 -0.594277,0.57361 -0.676959,1.41076 h 1.080034 q 0.103352,-0.46508 0.403075,-0.68729 0.284219,-0.22221 0.63045,-0.22221 0.48059,0.0103 0.785479,0.30489 0.30489,0.30489 0.315226,0.78031 0,0.47026 -0.30489,0.76481 -0.30489,0.30489 -0.857826,0.30489 h -0.372069 z"
         style="font-style:normal;font-variant:normal;font-weight:bold;font-stretch:normal;font-family:'DIN Alternate';-inkscape-font-specification:'DIN Alternate Bold'"
         id="path971" />
      <path
         d="m 51.689739,173.56617 v 6.39236 h 1.080034 v -7.5344 h -1.080034 l -1.069698,0.78031 v 1.14721 0 l 1.069698,-0.78548 z"
         style="font-style:normal;font-variant:normal;font-weight:bold;font-stretch:normal;font-family:'DIN Alternate';-inkscape-font-specification:'DIN Alternate Bold'"
         id="path973" />
      <path
         d="m 55.250234,176.49622 h 1.018023 q 0.191202,-0.34623 0.43408,-0.48576 0.242879,-0.13436 0.537434,-0.13436 0.330728,0 0.552936,0.093 0.222208,0.11369 0.335895,0.30489 0.211873,0.40308 0.201538,1.04903 0,0.26355 -0.01033,0.5426 -0.02067,0.28422 -0.113688,0.5271 -0.08785,0.24288 -0.310058,0.39274 -0.232543,0.15503 -0.620115,0.15503 -0.904335,-0.0103 -1.080034,-0.8785 h -1.080034 q 0.155029,1.03869 0.800982,1.50378 0.635618,0.45475 1.400427,0.45475 0.568439,-0.0103 0.981849,-0.26355 0.423746,-0.24288 0.645953,-0.53743 0.253214,-0.29972 0.361734,-0.6873 0.103353,-0.39274 0.103353,-1.12654 0,-0.47542 -0.03101,-0.80098 -0.03101,-0.32039 -0.103352,-0.5426 -0.139526,-0.40824 -0.454752,-0.7183 -0.211872,-0.23255 -0.552936,-0.39274 -0.361734,-0.1447 -0.795814,-0.15503 -0.676959,0 -1.204057,0.41341 v 0 -1.70532 h 2.997223 v -1.08003 h -4.015246 z"
         style="font-style:normal;font-variant:normal;font-weight:bold;font-stretch:normal;font-family:'DIN Alternate';-inkscape-font-specification:'DIN Alternate Bold'"
         id="path975" />
    </g>
  </g>
</svg>
