<?xml version="1.0" encoding="UTF-8" standalone="no"?>
<svg
   xmlns:dc="http://purl.org/dc/elements/1.1/"
   xmlns:cc="http://creativecommons.org/ns#"
   xmlns:rdf="http://www.w3.org/1999/02/22-rdf-syntax-ns#"
   xmlns:svg="http://www.w3.org/2000/svg"
   xmlns="http://www.w3.org/2000/svg"
   width="24mm"
   height="12mm"
   viewBox="0 0 24 12"
   version="1.1"
   id="svg8">
  <defs
     id="defs2">
    <rect
       x="23.540173"
       y="170.27391"
       width="57.281086"
       height="20.401482"
       id="rect835" />
  </defs>
  <metadata
     id="metadata5">
    <rdf:RDF>
      <cc:Work
         rdf:about="">
        <dc:format>image/svg+xml</dc:format>
        <dc:type
           rdf:resource="http://purl.org/dc/dcmitype/StillImage" />
        <dc:title></dc:title>
      </cc:Work>
    </rdf:RDF>
  </metadata>
  <g
     id="layer1">
    <g
       aria-label="090"
       transform="translate(-40.046306,-170.22233)"
       id="text833"
       style="font-weight:bold;font-size:10.5833px;line-height:1.25;font-family:sans-serif;-inkscape-font-specification:'sans-serif Bold';text-align:center;white-space:pre;shape-inside:url(#rect835)">
      <path
         d="m 48.149915,177.78813 q -0.03101,1.14204 -1.059363,1.15238 -1.033526,-0.0103 -1.054196,-1.15238 v -3.1936 q 0.02067,-1.13171 1.054196,-1.15238 1.028357,0.0207 1.059363,1.15238 z m -3.193593,0.062 q 0.01033,1.03869 0.666624,1.60196 0.614947,0.5581 1.467606,0.56844 0.878496,-0.0103 1.493444,-0.56844 0.625283,-0.56327 0.645953,-1.60196 v -3.32279 q -0.02067,-1.04386 -0.645953,-1.60713 -0.614948,-0.5581 -1.493444,-0.5581 -0.852659,0 -1.467606,0.5581 -0.656289,0.56327 -0.666624,1.60713 z"
         style="font-style:normal;font-variant:normal;font-weight:bold;font-stretch:normal;font-family:'DIN Alternate';-inkscape-font-specification:'DIN Alternate Bold'"
         id="path846" />
      <path
         d="m 50.754399,179.95853 q -0.0052,0 0.08785,-0.18604 0.09302,-0.1912 0.242878,-0.49092 0.149861,-0.29972 0.335896,-0.66662 0.186034,-0.36691 0.366901,-0.72347 0.180867,-0.35657 0.335896,-0.65629 0.160197,-0.29972 0.258381,-0.47025 -0.149861,0.0878 -0.341063,0.10852 -0.186034,0.0155 -0.434081,0.005 -0.341063,-0.0103 -0.599444,-0.12402 -0.253214,-0.11369 -0.439249,-0.28422 -0.186034,-0.17053 -0.310057,-0.37724 -0.124023,-0.21187 -0.201538,-0.40824 -0.07235,-0.20154 -0.10852,-0.37207 -0.03101,-0.1757 -0.03101,-0.27388 0,-0.031 -0.0052,-0.11369 0,-0.0827 0,-0.18087 0,-0.10335 0,-0.2067 0.0052,-0.10335 0.0155,-0.1757 0.0052,-0.0362 0.03101,-0.18087 0.03101,-0.14986 0.10852,-0.35656 0.07751,-0.20671 0.21704,-0.43925 0.139526,-0.23771 0.361734,-0.44442 0.227375,-0.2067 0.552936,-0.35657 0.330728,-0.14986 0.780312,-0.1912 0.470254,-0.0413 0.82682,0.0568 0.361734,0.0982 0.620115,0.28422 0.258381,0.18603 0.428913,0.43408 0.170532,0.24804 0.263549,0.50642 0.09819,0.25322 0.129191,0.4961 0.03101,0.23771 0.01033,0.40824 -0.03101,0.25321 -0.06718,0.45475 -0.03617,0.19637 -0.08785,0.37724 -0.04651,0.18086 -0.10852,0.35656 -0.06201,0.1757 -0.144694,0.38241 -0.02067,0.0568 -0.113687,0.24804 -0.08785,0.19121 -0.227376,0.47026 -0.134358,0.27388 -0.299722,0.61495 -0.160197,0.33589 -0.330728,0.67695 -0.397908,0.80615 -0.888832,1.79834 z m 0.232543,-5.45702 q 0,0.20154 0.02067,0.44442 0.02067,0.24288 0.118855,0.45992 0.103353,0.21187 0.320393,0.3669 0.21704,0.14986 0.60978,0.17053 0.19637,0.0103 0.356566,-0.0465 0.160197,-0.062 0.28422,-0.16019 0.124023,-0.0982 0.211872,-0.22221 0.09302,-0.12402 0.149862,-0.24288 0.06201,-0.12402 0.08785,-0.22737 0.02584,-0.10336 0.02584,-0.16537 -0.0052,-0.12919 -0.01034,-0.28939 0,-0.16019 -0.03101,-0.32556 -0.02584,-0.16536 -0.09302,-0.31522 -0.06718,-0.15503 -0.191202,-0.26872 -0.124023,-0.11369 -0.320393,-0.1757 -0.191202,-0.0672 -0.480589,-0.0517 -0.320393,0.0155 -0.527098,0.16019 -0.201538,0.1447 -0.320393,0.3204 -0.118855,0.17569 -0.165364,0.34106 -0.04651,0.16536 -0.04651,0.22737 z"
         style="font-style:normal;font-variant:normal;font-weight:bold;font-stretch:normal;font-family:'DIN Alternate';-inkscape-font-specification:'DIN Alternate Bold'"
         id="path848" />
      <path
         d="m 58.319805,177.78813 q -0.03101,1.14204 -1.059364,1.15238 -1.033525,-0.0103 -1.054196,-1.15238 v -3.1936 q 0.02067,-1.13171 1.054196,-1.15238 1.028358,0.0207 1.059364,1.15238 z m -3.193594,0.062 q 0.01034,1.03869 0.666624,1.60196 0.614948,0.5581 1.467606,0.56844 0.878497,-0.0103 1.493444,-0.56844 0.625283,-0.56327 0.645954,-1.60196 v -3.32279 q -0.02067,-1.04386 -0.645954,-1.60713 -0.614947,-0.5581 -1.493444,-0.5581 -0.852658,0 -1.467606,0.5581 -0.656288,0.56327 -0.666624,1.60713 z"
         style="font-style:normal;font-variant:normal;font-weight:bold;font-stretch:normal;font-family:'DIN Alternate';-inkscape-font-specification:'DIN Alternate Bold'"
         id="path850" />
    </g>
  </g>
</svg>
