<?xml version="1.0" encoding="UTF-8" standalone="no"?>
<svg
   xmlns:dc="http://purl.org/dc/elements/1.1/"
   xmlns:cc="http://creativecommons.org/ns#"
   xmlns:rdf="http://www.w3.org/1999/02/22-rdf-syntax-ns#"
   xmlns:svg="http://www.w3.org/2000/svg"
   xmlns="http://www.w3.org/2000/svg"
   width="16mm"
   height="12mm"
   viewBox="0 0 16 12"
   version="1.1"
   id="svg8">
  <defs
     id="defs2">
    <rect
       x="23.540173"
       y="170.27391"
       width="57.281086"
       height="20.401482"
       id="rect835" />
  </defs>
  <metadata
     id="metadata5">
    <rdf:RDF>
      <cc:Work
         rdf:about="">
        <dc:format>image/svg+xml</dc:format>
        <dc:type
           rdf:resource="http://purl.org/dc/dcmitype/StillImage" />
        <dc:title></dc:title>
      </cc:Work>
    </rdf:RDF>
  </metadata>
  <g
     id="layer1">
    <g
       aria-label="20"
       transform="translate(-44.051473,-170.19133)"
       id="text833"
       style="font-weight:bold;font-size:10.5833px;line-height:1.25;font-family:sans-serif;-inkscape-font-specification:'sans-serif Bold';text-align:center;white-space:pre;shape-inside:url(#rect835)">
      <path
         d="m 47.436783,179.95853 h 4.294298 v -1.08004 h -2.878369 l 2.423617,-3.03856 q 0.454752,-0.57877 0.454752,-1.32291 -0.01034,-0.93018 -0.625283,-1.53479 -0.604613,-0.60978 -1.576126,-0.62011 -0.868162,0.0103 -1.462439,0.60978 -0.589109,0.61494 -0.63045,1.55545 h 1.074866 q 0.05684,-0.51676 0.361734,-0.80098 0.294555,-0.28422 0.738971,-0.28422 0.501259,0.0103 0.775144,0.32556 0.263549,0.31523 0.263549,0.73897 0,0.1602 -0.04134,0.34107 -0.06201,0.1912 -0.232544,0.41341 l -2.940379,3.67935 z"
         style="font-style:normal;font-variant:normal;font-weight:bold;font-stretch:normal;font-family:'DIN Alternate';-inkscape-font-specification:'DIN Alternate Bold'"
         id="path1073" />
      <path
         d="m 55.777332,177.78813 q -0.03101,1.14204 -1.059363,1.15238 -1.033526,-0.0103 -1.054196,-1.15238 v -3.1936 q 0.02067,-1.13171 1.054196,-1.15238 1.028358,0.0207 1.059363,1.15238 z m -3.193593,0.062 q 0.01033,1.03869 0.666624,1.60196 0.614947,0.5581 1.467606,0.56844 0.878496,-0.0103 1.493444,-0.56844 0.625283,-0.56327 0.645953,-1.60196 v -3.32279 q -0.02067,-1.04386 -0.645953,-1.60713 -0.614948,-0.5581 -1.493444,-0.5581 -0.852659,0 -1.467606,0.5581 -0.656289,0.56327 -0.666624,1.60713 z"
         style="font-style:normal;font-variant:normal;font-weight:bold;font-stretch:normal;font-family:'DIN Alternate';-inkscape-font-specification:'DIN Alternate Bold'"
         id="path1075" />
    </g>
  </g>
</svg>
