<?xml version="1.0" encoding="UTF-8" standalone="no"?>
<svg
   xmlns:dc="http://purl.org/dc/elements/1.1/"
   xmlns:cc="http://creativecommons.org/ns#"
   xmlns:rdf="http://www.w3.org/1999/02/22-rdf-syntax-ns#"
   xmlns:svg="http://www.w3.org/2000/svg"
   xmlns="http://www.w3.org/2000/svg"
   width="24mm"
   height="12mm"
   viewBox="0 0 24 12"
   version="1.1"
   id="svg8">
  <defs
     id="defs2">
    <rect
       x="23.540173"
       y="170.27391"
       width="57.281086"
       height="20.401482"
       id="rect835" />
  </defs>
  <metadata
     id="metadata5">
    <rdf:RDF>
      <cc:Work
         rdf:about="">
        <dc:format>image/svg+xml</dc:format>
        <dc:type
           rdf:resource="http://purl.org/dc/dcmitype/StillImage" />
        <dc:title></dc:title>
      </cc:Work>
    </rdf:RDF>
  </metadata>
  <g
     id="layer1">
    <g
       aria-label="045"
       transform="translate(-40.046306,-170.22233)"
       id="text833"
       style="font-weight:bold;font-size:10.5833px;line-height:1.25;font-family:sans-serif;-inkscape-font-specification:'sans-serif Bold';text-align:center;white-space:pre;shape-inside:url(#rect835)">
      <path
         d="m 48.149915,177.78813 q -0.03101,1.14204 -1.059363,1.15238 -1.033526,-0.0103 -1.054196,-1.15238 v -3.1936 q 0.02067,-1.13171 1.054196,-1.15238 1.028357,0.0207 1.059363,1.15238 z m -3.193593,0.062 q 0.01033,1.03869 0.666624,1.60196 0.614947,0.5581 1.467606,0.56844 0.878496,-0.0103 1.493444,-0.56844 0.625283,-0.56327 0.645953,-1.60196 v -3.32279 q -0.02067,-1.04386 -0.645953,-1.60713 -0.614948,-0.5581 -1.493444,-0.5581 -0.852659,0 -1.467606,0.5581 -0.656289,0.56327 -0.666624,1.60713 z"
         style="font-style:normal;font-variant:normal;font-weight:bold;font-stretch:normal;font-family:'DIN Alternate';-inkscape-font-specification:'DIN Alternate Bold'"
         id="path865" />
      <path
         d="m 49.767382,178.83715 h 3.141917 v 1.12138 h 1.080034 v -1.12138 h 0.599445 v -1.01802 h -0.599445 v -2.16523 h -1.080034 v 2.16523 h -1.968865 l 2.54764,-5.395 h -1.204057 l -2.516635,5.395 z"
         style="font-style:normal;font-variant:normal;font-weight:bold;font-stretch:normal;font-family:'DIN Alternate';-inkscape-font-specification:'DIN Alternate Bold'"
         id="path867" />
      <path
         d="m 55.250234,176.49622 h 1.018023 q 0.191202,-0.34623 0.43408,-0.48576 0.242879,-0.13436 0.537434,-0.13436 0.330728,0 0.552936,0.093 0.222208,0.11369 0.335895,0.30489 0.211873,0.40308 0.201538,1.04903 0,0.26355 -0.01033,0.5426 -0.02067,0.28422 -0.113688,0.5271 -0.08785,0.24288 -0.310058,0.39274 -0.232543,0.15503 -0.620115,0.15503 -0.904335,-0.0103 -1.080034,-0.8785 h -1.080034 q 0.155029,1.03869 0.800982,1.50378 0.635618,0.45475 1.400427,0.45475 0.568439,-0.0103 0.981849,-0.26355 0.423746,-0.24288 0.645953,-0.53743 0.253214,-0.29972 0.361734,-0.6873 0.103353,-0.39274 0.103353,-1.12654 0,-0.47542 -0.03101,-0.80098 -0.03101,-0.32039 -0.103352,-0.5426 -0.139526,-0.40824 -0.454752,-0.7183 -0.211872,-0.23255 -0.552936,-0.39274 -0.361734,-0.1447 -0.795814,-0.15503 -0.676959,0 -1.204057,0.41341 v 0 -1.70532 h 2.997223 v -1.08003 h -4.015246 z"
         style="font-style:normal;font-variant:normal;font-weight:bold;font-stretch:normal;font-family:'DIN Alternate';-inkscape-font-specification:'DIN Alternate Bold'"
         id="path869" />
    </g>
  </g>
</svg>
